<?xml version="1.0" standalone="no"?><!DOCTYPE svg PUBLIC "-//W3C//DTD SVG 1.1//EN" "http://www.w3.org/Graphics/SVG/1.1/DTD/svg11.dtd"><svg xmlns:xlink="http://www.w3.org/1999/xlink" xmlns="http://www.w3.org/2000/svg" version="1.1" width="200" height="200" viewBox="0 0 200 200"><defs><style type="text/css"><![CDATA[
@font-face {
  font-family: "ifont";
  src: url("//at.alicdn.com/t/font_1442373896_4754455.eot?#iefix") format("embedded-opentype"), url("//at.alicdn.com/t/font_1442373896_4754455.woff") format("woff"), url("//at.alicdn.com/t/font_1442373896_4754455.ttf") format("truetype"), url("//at.alicdn.com/t/font_1442373896_4754455.svg#ifont") format("svg");
}

]]></style></defs><g class="transform-group"><g transform="scale(0.1953125, 0.1953125)"><path d="M961.610044 74.354452l-14.245446 168.870082-29.54899-36.726459L606.818529 805.944705c-3.047406 6.02011-8.667404 10.241248-15.178701 11.497868-6.568602 1.299599-13.313214-0.599657-18.35095-4.945639L332.638983 603.753727 195.399295 812.739459c-4.212952 6.4192-11.189853 9.873882-18.225083 9.873882-4.222161 0-8.442276-1.131777-12.139481-3.687996-10.082636-6.843872-12.781094-20.648272-6.094812-30.889521L309.891909 558.217624c3.463891-5.294586 8.967232-8.80862 15.186887-9.698896 6.211469-0.841158 12.489452 1.006933 17.234523 5.112438l238.534721 207.02917 298.274314-574.934355-46.543036-3.872191L961.610044 74.354452 961.610044 74.354452zM921.336806 961.610044 96.502891 961.610044l-7.385201 0L77.0437 961.610044c-3.462868 0-6.510274-2.14792-8.967232-5.720282-3.580548-2.572592-5.687536-5.653767-5.687536-9.108448l0-12.205996 0-7.550976L62.388932 89.532129c0-15.002692 6.561439-27.142174 14.653745-27.142174l19.459191 0c8.033977 0 14.594393 12.139481 14.594393 27.142174l0 822.670645 810.239522 0c14.771425 0 26.668383 6.6607 26.668383 14.820544l0 19.757996C948.005188 954.998463 936.108231 961.610044 921.336806 961.610044L921.336806 961.610044zM204.200752 893.452735c-9.965979 0-18.292622-6.794753-20.174482-15.769149 10.207479-2.564405 19.116383-8.876158 25.028023-17.926278l15.719007-23.854291 0 38.017872C224.774323 884.70142 215.566614 893.452735 204.200752 893.452735L204.200752 893.452735zM272.732591 893.452735c-11.381212 0-20.581758-8.751315-20.581758-19.532869l0-79.748299 41.098024-62.570058 0 142.318356C293.248857 884.70142 284.039101 893.452735 272.732591 893.452735L272.732591 893.452735zM341.198939 893.452735c-11.365862 0-20.582781-8.751315-20.582781-19.532869L320.616158 689.87006l12.847609-19.516496 28.250414 24.470321 0 179.095981C361.714182 884.70142 352.513636 893.452735 341.198939 893.452735L341.198939 893.452735zM409.67245 893.452735c-11.373025 0-20.523429-8.751315-20.523429-19.532869L389.149021 718.695572l41.097 35.593659 0 119.630634C430.246021 884.70142 421.045475 893.452735 409.67245 893.452735L409.67245 893.452735zM478.137775 893.452735c-11.30651 0-20.50808-8.751315-20.50808-19.532869L457.629695 778.094404l41.089837 35.593659 0 60.231803C498.720555 884.70142 489.453495 893.452735 478.137775 893.452735L478.137775 893.452735zM546.612309 893.452735c-11.31572 0-20.515243-8.751315-20.515243-19.532869l0-36.484959 30.423917 26.485211c3.221368 2.739391 6.860245 4.828982 10.673084 6.55223l0 3.447519C567.194066 884.70142 557.985334 893.452735 546.612309 893.452735L546.612309 893.452735zM615.144148 893.452735c-11.373025 0-20.573571-8.751315-20.573571-19.532869l0-1.1328c11.606339-3.031033 21.389146-10.716063 27.018354-21.597901l14.07967-27.084868 0 49.815569C635.668601 884.70142 626.458845 893.452735 615.144148 893.452735L615.144148 893.452735zM683.617659 893.452735c-11.322883 0-20.581758-8.751315-20.581758-19.532869L663.035902 771.308861l41.097-79.223343 0 181.834348C704.133925 884.70142 694.933379 893.452735 683.617659 893.452735L683.617659 893.452735zM752.084007 893.452735c-11.364839 0-20.515243-8.751315-20.515243-19.532869L731.568764 639.297244l41.098024-79.238692 0 313.861314C772.665765 884.70142 763.466242 893.452735 752.084007 893.452735L752.084007 893.452735zM820.615846 893.452735c-11.373025 0-20.573571-8.751315-20.573571-19.532869L800.042275 507.21195l41.088814-79.113849 0 445.821765C841.131089 884.70142 831.931566 893.452735 820.615846 893.452735L820.615846 893.452735zM889.031029 893.452735c-11.314697 0-20.515243-8.751315-20.515243-19.532869L868.515786 375.243313l41.098024-79.223343 0 577.899896C909.61381 884.70142 900.405077 893.452735 889.031029 893.452735L889.031029 893.452735z" fill="#272636"></path></g></g></svg>