<?xml version="1.0" standalone="no"?><!DOCTYPE svg PUBLIC "-//W3C//DTD SVG 1.1//EN" "http://www.w3.org/Graphics/SVG/1.1/DTD/svg11.dtd"><svg xmlns:xlink="http://www.w3.org/1999/xlink" xmlns="http://www.w3.org/2000/svg" version="1.1" width="200" height="200" viewBox="0 0 200 200"><defs><style type="text/css"><![CDATA[
@font-face {
  font-family: "ifont";
  src: url("//at.alicdn.com/t/font_1442373896_4754455.eot?#iefix") format("embedded-opentype"), url("//at.alicdn.com/t/font_1442373896_4754455.woff") format("woff"), url("//at.alicdn.com/t/font_1442373896_4754455.ttf") format("truetype"), url("//at.alicdn.com/t/font_1442373896_4754455.svg#ifont") format("svg");
}

]]></style></defs><g class="transform-group"><g transform="scale(0.1953125, 0.1953125)"><path d="M703.698508 64.017012 703.698508 127.96137 127.91788 127.96137 127.91788 895.505487 767.527233 895.505487 767.527233 575.785745 831.526849 575.785745 831.526849 959.482591 64.027757 959.482591 64.027757 64.017012ZM191.533756 255.490905l383.739824 0 0 64.46829-383.739824 0 0-64.46829ZM191.533756 383.319246l383.739824 0 0 64.46829-383.739824 0 0-64.46829ZM191.533756 511.750313l191.869912 0 0 64.46829-191.869912 0 0-64.46829ZM191.533756 639.144772l191.869912 0 0 64.46829-191.869912 0 0-64.46829ZM458.388477 693.727924 855.373976 114.3954 960.726419 186.655144 563.74092 765.986645 438.929286 835.67789Z" fill="#272636"></path></g></g></svg>