<?xml version="1.0" standalone="no"?><!DOCTYPE svg PUBLIC "-//W3C//DTD SVG 1.1//EN" "http://www.w3.org/Graphics/SVG/1.1/DTD/svg11.dtd"><svg xmlns:xlink="http://www.w3.org/1999/xlink" xmlns="http://www.w3.org/2000/svg" version="1.1" width="200" height="200" viewBox="0 0 200 200"><defs><style type="text/css"><![CDATA[
@font-face {
  font-family: "ifont";
  src: url("//at.alicdn.com/t/font_1442373896_4754455.eot?#iefix") format("embedded-opentype"), url("//at.alicdn.com/t/font_1442373896_4754455.woff") format("woff"), url("//at.alicdn.com/t/font_1442373896_4754455.ttf") format("truetype"), url("//at.alicdn.com/t/font_1442373896_4754455.svg#ifont") format("svg");
}

]]></style></defs><g class="transform-group"><g transform="scale(0.1953125, 0.1953125)"><path d="M922.185143 755.273143l63.73181-40.131048-23.698286-57.782857-73.069714 16.969143c-10.435048-14.409143-23.113143-27.209143-37.766095-38.204952l16.603429-73.118476-57.58781-24.088381L770.925714 602.209524c-18.041905-2.82819-36.10819-2.901333-53.735619-0.365714l-39.228952-63.390476-57.758476 23.552 15.823238 72.899048c-14.409143 10.50819-27.306667 23.259429-38.351238 37.985524l-72.362667-17.115429-24.039619 57.539048 62.561524 40.374857c-2.80381 18.041905-2.755048 36.132571-0.146286 53.955048l-63.292952 39.058286 23.649524 57.856 72.923429-15.920762c10.605714 14.336 23.235048 27.136 37.961143 38.083048l-17.115429 72.728381 57.539048 24.015238 40.643048-63.097905c17.92 2.681905 36.035048 2.608762 53.564952-0.073143L809.667048 1024l57.685333-23.722667-16.969143-73.216c14.238476-10.50819 26.989714-23.113143 37.814857-37.61981l73.557333 16.62781 24.015238-57.539048-63.804952-39.911619C924.745143 790.698667 924.745143 772.827429 922.185143 755.273143L922.185143 755.273143zM823.612952 815.030857c-18.529524 44.30019-69.510095 65.194667-113.883429 46.640762-44.27581-18.553905-65.219048-69.485714-46.689524-113.93219 18.553905-44.27581 69.558857-65.145905 113.883429-46.592C821.272381 719.725714 842.166857 770.633143 823.612952 815.030857L823.612952 815.030857zM823.612952 815.030857M231.350857 346.307048l384.341333 0 0 76.848762L231.350857 423.15581 231.350857 346.307048 231.350857 346.307048zM231.350857 346.307048M231.350857 538.477714l341.382095 0 0 76.848762L231.350857 615.326476 231.350857 538.477714 231.350857 538.477714zM231.350857 538.477714M231.350857 730.648381l269.04381 0 0 76.848762L231.350857 807.497143 231.350857 730.648381 231.350857 730.648381zM231.350857 730.648381M116.028952 845.945905 116.028952 346.307048c0-38.253714 38.521905-38.448762 76.873143-38.448762l115.297524 0c21.187048 0 38.448762-17.261714 38.448762-38.448762L346.648381 152.30781c0-34.084571-0.390095-68.144762 27.331048-75.215238l280.161524 0.146286c42.398476 0 76.873143 34.450286 76.873143 76.873143l0 345.916952 76.848762 0L807.862857 154.112c0-84.772571-68.973714-153.746286-153.746286-153.746286L346.648381 0.365714c-40.838095 0-80.018286 37.985524-145.773714 105.106286C191.634286 114.858667 182.247619 124.464762 172.714667 133.924571 163.254857 143.457524 153.648762 152.84419 144.262095 162.06019c-67.096381 65.755429-105.106286 104.96-105.106286 145.773714l0 538.087619c0 84.74819 68.998095 153.721905 153.746286 153.721905l384.365714 0L577.26781 922.819048 192.902095 922.819048C150.479238 922.819048 116.028952 888.368762 116.028952 845.945905L116.028952 845.945905zM116.028952 845.945905" fill="#272636"></path></g></g></svg>